<!-- Generated by IcoMoon.io -->
<svg version="1.1" xmlns="http://www.w3.org/2000/svg" width="32" height="32" viewBox="0 0 32 32">
<path d="M30.4 14.72q0.64 0 1.12 0.384t0.48 0.896q0 1.28-1.6 1.28h-1.536q-1.6 0-1.6-1.28 0-0.512 0.48-0.896t1.12-0.384h1.536zM16 7.232q3.648 0 6.24 2.56t2.592 6.208q0 3.712-2.592 6.272t-6.24 2.56-6.208-2.56-2.56-6.272q0-3.648 2.56-6.208t6.208-2.56zM16.192 22.4v-12.8q-2.752 0-4.672 1.888t-1.92 4.512q0 2.688 1.92 4.544t4.672 1.856zM4.8 16q0 1.28-1.6 1.28h-1.6q-1.6 0-1.6-1.28 0-0.512 0.48-0.896t1.12-0.384h1.6q0.64 0 1.12 0.384t0.48 0.896zM16 4.8q-0.512 0-0.896-0.48t-0.384-1.12v-1.6q0-0.64 0.384-1.12t0.896-0.48 0.896 0.48 0.384 1.12v1.6q0 0.64-0.384 1.12t-0.896 0.48zM16 27.2q0.512 0 0.896 0.48t0.384 1.12v1.6q0 0.64-0.384 1.12t-0.896 0.48-0.896-0.48-0.384-1.12v-1.6q0-0.64 0.384-1.12t0.896-0.48zM27.776 6.080l-1.088 1.088q-1.088 1.088-2.048 0.256-0.896-0.896 0.256-2.048 0.128-0.192 1.088-1.152 1.152-1.088 2.048-0.192t-0.256 2.048zM5.376 24.896q0.448-0.512 1.056-0.576t0.928 0.32q0.384 0.384 0.32 0.992t-0.512 1.056l-1.152 1.152q-0.448 0.448-1.056 0.512t-0.928-0.32q-0.96-0.896 0.192-2.048 0.192-0.128 1.152-1.088zM6.016 4.224l1.152 1.152q1.152 1.152 0.192 2.048-0.32 0.32-0.928 0.256t-1.056-0.512q-0.96-0.96-1.152-1.088-0.448-0.448-0.512-1.056t0.32-0.992q0.32-0.384 0.928-0.32t1.056 0.512zM24.896 26.688q-1.152-1.152-0.256-2.048t2.048 0.256l1.088 1.088q1.152 1.152 0.256 2.048t-2.048-0.192q-0.96-0.96-1.088-1.152z"></path>
</svg>
