<!-- Generated by IcoMoon.io -->
<svg version="1.1" xmlns="http://www.w3.org/2000/svg" width="35" height="32" viewBox="0 0 35 32">
<path d="M0.064 24.832q0.16-0.256 0.512-0.032 8 4.64 17.408 4.64 6.272 0 12.384-2.336 0.16-0.064 0.48-0.192t0.416-0.192q0.48-0.192 0.768 0.192t-0.192 0.704q-0.576 0.416-1.472 0.96-2.752 1.632-6.144 2.528t-6.624 0.896q-4.992 0-9.44-1.728t-7.968-4.928q-0.192-0.16-0.192-0.32 0-0.096 0.064-0.192zM9.696 15.712q0-2.208 1.088-3.776t2.976-2.368q1.728-0.736 4.256-1.056 0.864-0.096 2.816-0.256v-0.544q0-2.048-0.448-2.752-0.672-0.96-2.112-0.96h-0.256q-1.056 0.096-1.824 0.672t-0.992 1.6q-0.128 0.64-0.64 0.736l-3.68-0.448q-0.544-0.128-0.544-0.576 0-0.096 0.032-0.224 0.544-2.848 2.688-4.224t4.96-1.536h0.8q3.648 0 5.696 1.888 0.32 0.32 0.608 0.672t0.416 0.672 0.288 0.832 0.192 0.736 0.096 0.896 0.032 0.832v7.744q0 0.832 0.256 1.504t0.448 0.992 0.736 0.992q0.192 0.288 0.192 0.512 0 0.256-0.256 0.448-2.656 2.304-2.88 2.496-0.384 0.288-0.928 0.064-0.448-0.384-0.768-0.736t-0.48-0.512-0.48-0.64-0.448-0.608q-1.792 1.952-3.52 2.432-1.088 0.32-2.688 0.32-2.464 0-4.032-1.536t-1.6-4.288zM15.2 15.072q0 1.248 0.64 1.984t1.664 0.768q0.096 0 0.288-0.032t0.224-0.032q1.344-0.352 2.080-1.728 0.352-0.608 0.544-1.344t0.192-1.152 0-1.472v-0.8q-1.856 0-2.816 0.256-2.816 0.8-2.816 3.552zM28.64 25.376q0.064-0.128 0.192-0.256 0.8-0.544 1.536-0.736 1.216-0.32 2.368-0.352 0.32-0.032 0.608 0.032 1.44 0.128 1.728 0.48 0.128 0.192 0.128 0.576v0.224q0 1.12-0.608 2.656t-1.696 2.432q-0.16 0.128-0.288 0.128-0.064 0-0.128-0.032-0.192-0.096-0.096-0.352 1.184-2.784 1.184-3.872 0-0.352-0.128-0.512-0.32-0.384-1.792-0.384-0.544 0-1.28 0.064-0.8 0.096-1.472 0.192-0.192 0-0.256-0.064t-0.032-0.128q0-0.032 0.032-0.096z"></path>
</svg>
