<!-- Generated by IcoMoon.io -->
<svg version="1.1" xmlns="http://www.w3.org/2000/svg" width="30" height="32" viewBox="0 0 30 32">
<path d="M7.808 31.68q-3.264 0-5.44-2.304-2.304-2.24-2.368-5.312t2.688-6.080l15.872-15.872q2.56-2.56 5.568-1.728 1.408 0.384 2.528 1.504t1.504 2.528q0.832 3.072-1.728 5.632l-15.168 15.168q-1.28 1.28-2.816 1.472-1.536 0.128-2.56-0.896-0.96-0.768-0.864-2.368t1.504-2.944l10.624-10.688q0.768-0.832 1.6 0t0 1.6l-10.624 10.624q-1.408 1.408-0.64 2.24 0.384 0.256 0.768 0.192 0.768-0.128 1.472-0.832l15.168-15.168q1.6-1.6 1.088-3.456-0.512-1.92-2.432-2.432-1.728-0.448-3.456 1.152l-15.808 15.808q-2.112 2.432-2.048 4.576t1.664 3.744q1.6 1.536 3.744 1.6t4.512-1.984l15.872-15.808q0.768-0.768 1.6 0 0.832 0.704 0 1.536l-15.872 15.872q-2.624 2.624-5.952 2.624z"></path>
</svg>
