<!-- Generated by IcoMoon.io -->
<svg version="1.1" xmlns="http://www.w3.org/2000/svg" width="32" height="32" viewBox="0 0 32 32">
<path d="M24.64 16q0 3.136 1.152 5.024t2.496 1.888h2.112q-0.96 1.472-2.048 2.080t-3.776 0.608h-16q-4.16 0-6.368-3.008t-2.208-6.592q0-3.52 2.208-6.56t6.368-3.040h16q2.688 0 3.776 0.608t2.048 2.080h-2.112q-1.344 0-2.496 1.92t-1.152 4.992zM20.288 18.88q0.32-0.384-0.256-0.832-4.352-4.288-5.696-5.248-0.512-0.32-0.832-0.416t-0.576 0.16-0.32 0.384-0.256 0.576l-0.704 1.792-4.736-2.112q-0.832-0.384-1.088 0-0.256 0.448 0.256 0.896 4.352 4.224 5.76 5.184 1.088 0.512 1.344 0.352t0.576-0.992l0.768-1.856 4.672 2.176q0.832 0.384 1.088-0.064zM30.208 12.736q0.704 0 1.248 0.864t0.544 2.272-0.544 2.304-1.248 0.896h-1.216q-0.704 0-1.216-0.896t-0.512-2.304 0.512-2.272 1.216-0.864h1.216z"></path>
</svg>
