<!-- Generated by IcoMoon.io -->
<svg version="1.1" xmlns="http://www.w3.org/2000/svg" width="32" height="32" viewBox="0 0 32 32">
<path d="M0.512 12.128q1.056-4.224 4-7.264t7.072-4.256 8.32-0.128 7.264 4.032 4.256 7.040 0.128 8.32-4.032 7.296-7.040 4.224-8.32 0.128-7.296-4-4.224-7.072-0.128-8.32zM7.808 20.8l2.304 0.576q0.224 0.032 0.64 0.16t0.608 0.16l-0.736 2.912 1.76 0.448 0.704-2.88q0.192 0.064 0.672 0.192t0.736 0.16l-0.704 2.88 1.76 0.416 0.704-2.912q1.536 0.256 2.72 0.256t2.112-0.672 1.376-1.952q1.024-2.88-1.632-4.256 1.92-0.416 2.24-2.56 0.416-2.752-3.52-4.032l0.736-2.912-1.76-0.416-0.704 2.816q-0.256-0.064-0.736-0.16t-0.672-0.192l0.704-2.816-1.76-0.448-0.704 2.88q-0.48-0.064-1.12-0.256l-2.432-0.608-0.448 1.888 1.248 0.288q0.896 0.224 0.832 1.024l-0.832 3.296q0.064 0 0.192 0.064-0.032-0.032-0.096-0.032t-0.096-0.032l-1.152 4.608q-0.16 0.576-0.8 0.416l-1.28-0.32zM13.664 20.064l0.96-3.872q0.032 0 0.608 0.128t0.896 0.224 0.896 0.288 0.928 0.416 0.672 0.544 0.448 0.704 0 0.864q-0.096 0.352-0.288 0.608t-0.48 0.384-0.608 0.224-0.736 0.096-0.736-0.064-0.768-0.128-0.704-0.128-0.608-0.16-0.48-0.128zM15.072 14.432l0.864-3.52q0.096 0.032 0.384 0.096t0.544 0.128 0.576 0.16 0.608 0.192 0.576 0.288 0.48 0.352 0.352 0.416 0.192 0.544-0.032 0.608q-0.096 0.416-0.352 0.704t-0.608 0.352-0.704 0.16-0.864-0.032-0.768-0.128-0.736-0.192-0.512-0.128z"></path>
</svg>
