<!-- Generated by IcoMoon.io -->
<svg version="1.1" xmlns="http://www.w3.org/2000/svg" width="32" height="32" viewBox="0 0 32 32">
<path d="M14.592 16.768v3.2h-14.592q0.256-7.232 0.32-9.344 0.128-3.456 3.2-3.456h5.12q0.512-0.832 1.184-2.144t0.736-1.44q0.448-0.832 0.736-1.024t1.184-0.192h7.104q0.832 0 1.152 0.224t0.704 0.992q0.576 1.024 1.92 3.584h5.12q3.072 0 3.2 3.456l0.32 9.344h-14.528v-3.2h-2.88zM12.224 5.44l-0.896 1.728h9.344l-0.896-1.728q-0.448-0.832-1.344-0.832h-4.864q-0.896 0-1.344 0.832zM17.472 24.768v-3.2h13.76q-0.192 2.816-0.32 5.312-0.192 2.688-2.88 2.688h-24q-2.88 0-2.88-2.688l-0.32-5.312h13.76v3.2h2.88z"></path>
</svg>
