<!-- Generated by IcoMoon.io -->
<svg version="1.1" xmlns="http://www.w3.org/2000/svg" width="31" height="32" viewBox="0 0 31 32">
<path d="M15.36 10.368q-2.112 0-2.112-2.176t2.112-2.176q2.176 0 2.176 2.176t-2.176 2.176zM18.496 11.2q0.448 0 0.704 0.256 0.32 0.32 0.32 0.704v6.272h-1.792v7.488h-4.736v-7.488h-1.792v-6.272q0-0.384 0.32-0.704 0.256-0.256 0.704-0.256h6.272zM15.36 0.64q6.4 0 10.88 4.48t4.48 10.88q0 6.336-4.48 10.848t-10.88 4.512q-6.336 0-10.848-4.512t-4.512-10.848q0-6.4 4.512-10.88t10.848-4.48zM15.36 28.544q5.184 0 8.864-3.68t3.68-8.864q0-5.248-3.68-8.896t-8.864-3.648-8.864 3.648-3.68 8.896q0 5.184 3.68 8.864t8.864 3.68z"></path>
</svg>
