<!-- Generated by IcoMoon.io -->
<svg version="1.1" xmlns="http://www.w3.org/2000/svg" width="31" height="32" viewBox="0 0 31 32">
<path d="M15.36 0.64q6.4 0 10.88 4.48t4.48 10.88q0 6.336-4.48 10.848t-10.88 4.512q-6.336 0-10.848-4.512t-4.512-10.848q0-6.4 4.512-10.88t10.848-4.48zM3.392 12.288q-0.576 1.728-0.576 3.712 0 5.184 3.68 8.864t8.864 3.68q3.392 0 6.24-1.664t4.512-4.48l-4.864-2.176v2.176h-4.032v3.456h-3.776v-3.456h-3.968v-2.368h3.968v-1.152l-0.384-0.768h-3.584v-2.368h1.728zM17.216 20.032h3.584l-3.392-1.536-0.192 0.384v1.152zM21.248 16.832l6.144 2.752q0.512-1.856 0.512-3.584 0-5.248-3.68-8.896t-8.864-3.648q-3.392 0-6.208 1.632t-4.48 4.384l5.056 2.24-1.728-3.136h4.096l2.432 5.312 1.472 0.64 2.624-5.952h4.096l-3.904 7.168h2.432v1.088z"></path>
</svg>
