<!-- Generated by IcoMoon.io -->
<svg version="1.1" xmlns="http://www.w3.org/2000/svg" width="31" height="32" viewBox="0 0 31 32">
<path d="M15.36 7.104q3.456 0 4.896 2.592t1.44 6.304q0 3.648-1.44 6.24t-4.896 2.592-4.896-2.592-1.44-6.24q0-3.712 1.44-6.304t4.896-2.592zM12.608 16q0 0.576 0.128 2.112l3.392-6.208q0.448-0.768-0.192-1.344-0.384-0.128-0.576-0.128-2.752 0-2.752 5.568zM15.36 21.504q2.752 0 2.752-5.504 0-1.28-0.192-2.688l-3.776 6.528q-0.704 0.96 0.384 1.472 0.064 0.064 0.192 0.064 0.064 0 0.064 0.064 0.064 0 0.256 0.032t0.32 0.032zM15.36 0.64q6.4 0 10.88 4.48t4.48 10.88q0 6.336-4.48 10.848t-10.88 4.512q-6.336 0-10.848-4.512t-4.512-10.848q0-6.4 4.512-10.88t10.848-4.48zM15.36 28.544q5.184 0 8.864-3.68t3.68-8.864q0-5.248-3.68-8.896t-8.864-3.648-8.864 3.648-3.68 8.896q0 5.184 3.68 8.864t8.864 3.68z"></path>
</svg>
