<!-- Generated by IcoMoon.io -->
<svg version="1.1" xmlns="http://www.w3.org/2000/svg" width="31" height="32" viewBox="0 0 31 32">
<path d="M15.168 0.64q6.336-0.064 10.88 4.352t4.672 10.752q0.064 6.4-4.352 10.944t-10.816 4.672q-6.336 0.064-10.912-4.384t-4.64-10.784q-0.128-6.4 4.32-10.944t10.848-4.608zM15.552 28.096q4.992-0.064 8.512-3.648t3.456-8.64-3.68-8.544-8.608-3.424q-5.056 0.064-8.544 3.648t-3.424 8.64 3.648 8.544 8.64 3.424zM11.584 18.56q1.28 0 1.856-1.28l1.792 0.96q-0.64 1.152-1.6 1.664-1.024 0.64-2.24 0.64-1.984 0-3.2-1.216-1.216-1.152-1.216-3.328t1.216-3.392 3.072-1.216q2.752 0 3.968 2.112l-1.984 1.024q-0.32-0.64-0.768-0.896t-0.896-0.256q-1.92 0-1.92 2.624 0 1.216 0.448 1.856 0.576 0.704 1.472 0.704zM20.096 18.56q1.344 0 1.792-1.28l1.856 0.96q-0.576 1.024-1.6 1.664t-2.24 0.64q-2.048 0-3.2-1.216-1.216-1.152-1.216-3.328 0-2.048 1.216-3.392 1.216-1.216 3.136-1.216 2.688 0 3.84 2.112l-1.92 1.024q-0.32-0.64-0.768-0.896t-0.896-0.256q-1.984 0-1.984 2.624 0 1.152 0.512 1.856t1.472 0.704z"></path>
</svg>
