<!-- Generated by IcoMoon.io -->
<svg version="1.1" xmlns="http://www.w3.org/2000/svg" width="32" height="32" viewBox="0 0 32 32">
<path d="M28.8 4.8q1.344 0 2.272 0.96t0.928 2.24v16q0 1.344-0.928 2.272t-2.272 0.928h-25.6q-1.28 0-2.24-0.928t-0.96-2.272v-16q0-1.28 0.96-2.24t2.24-0.96h25.6zM28.8 24v-9.6h-25.6v9.6h25.6zM28.8 9.6v-1.6h-25.6v1.6h25.6zM6.4 17.792h0.96v0.96h-0.96v-0.96zM12.16 19.712h0.96v-0.96h0.96v-0.96h1.92v0.96h-0.96v0.96h-0.96v0.96h-1.92v-0.96zM16 20.672h-0.96v-0.96h0.96v0.96zM11.2 20.672h-1.92v-0.96h1.92v0.96zM12.16 18.752v0.96h-0.96v-1.92h1.92v0.96h-0.96zM8.32 19.712v0.96h-1.92v-0.96h0.96v-0.96h0.96v-0.96h1.92v0.96h-0.96v0.96h-0.96z"></path>
</svg>
