<!-- Generated by IcoMoon.io -->
<svg version="1.1" xmlns="http://www.w3.org/2000/svg" width="36" height="32" viewBox="0 0 36 32">
<path d="M0 22.336v-11.904q0-0.416 0.416-0.416h5.632v-4.128q0-0.448 0.416-0.448h3.136v16.448q0 0.448-0.384 0.448h-9.216zM3.488 19.68h2.144q0.416 0 0.416-0.448v-6.592h-2.144q-0.416 0-0.416 0.448v6.592zM10.688 22.336v-11.904q0-0.416 0.416-0.416h3.136v11.872q0 0.448-0.384 0.448h-3.168zM10.688 8.096v-2.208q0-0.448 0.384-0.448h3.168v2.208q0 0.448-0.384 0.448h-3.168zM15.456 22.336v-11.904q0-0.416 0.416-0.416h9.216v16.128q0 0.416-0.416 0.416h-9.216l0.032-2.208q0-0.448 0.384-0.448h5.632v-1.568h-6.048zM18.976 19.68h2.144q0.384 0 0.384-0.448v-6.592h-2.144q-0.384 0-0.384 0.448v6.592zM26.304 24.352q0-0.448 0.416-0.448h5.632v-1.568h-6.048v-11.904q0-0.416 0.416-0.416h9.184v16.128q0 0.416-0.384 0.416h-9.216v-2.208zM29.792 19.68h2.144q0.416 0 0.416-0.448v-6.592h-2.144q-0.416 0-0.416 0.448v6.592z"></path>
</svg>
