<!-- Generated by IcoMoon.io -->
<svg version="1.1" xmlns="http://www.w3.org/2000/svg" width="29" height="32" viewBox="0 0 29 32">
<path d="M14.016 11.84q-0.96-1.728-2.112-3.488t-1.792-2.688-0.768-1.056q-2.624 1.28-4.448 3.584t-2.464 5.184q5.824 0 11.584-1.536zM15.616 16.064q0.256-0.128 0.448-0.128-0.32-0.896-1.024-2.176-5.824 1.792-12.864 1.792v0.448q0 4.8 3.2 8.384 0.128-0.256 0.416-0.672t1.248-1.6 2.048-2.208 2.848-2.112 3.68-1.728zM6.976 25.856q-0.064 0-0.128-0.064l-0.128-0.128zM23.040 6.528q-3.648-3.136-8.32-3.136-1.536 0-2.944 0.384 2.624 3.456 4.672 7.296 4.416-1.664 6.528-4.48zM14.72 30.72q-6.080 0-10.4-4.32t-4.32-10.4 4.32-10.4 10.4-4.32 10.4 4.32 4.32 10.4-4.32 10.4-10.4 4.32zM16.896 18.048q-6.912 2.368-9.856 7.744l-0.064 0.064q3.52 2.688 7.744 2.688 2.496 0 4.928-1.024-0.768-4.48-2.688-9.536zM17.408 12.992q0.384 0.768 0.832 1.792 0.064 0.064 0.16 0.288t0.16 0.352q2.112-0.256 4.128-0.128t3.232 0.32 1.344 0.256q0-4.416-2.816-7.872l-0.256 0.32q-0.256 0.32-0.832 0.864t-1.344 1.152-1.984 1.344-2.624 1.312zM19.328 17.408q1.664 4.736 2.432 8.96 4.48-2.944 5.376-8.384-0.256-0.128-1.248-0.352t-2.816-0.384-3.744 0.16z"></path>
</svg>
