<!-- Generated by IcoMoon.io -->
<svg version="1.1" xmlns="http://www.w3.org/2000/svg" width="29" height="32" viewBox="0 0 29 32">
<path d="M28.288 17.472q0.832 1.408 0.448 3.072l-1.088 5.888q-0.064 0.64-0.608 1.12t-1.248 0.48h-22.784q-0.64 0-1.216-0.48t-0.64-1.12l-1.088-5.888q-0.256-1.664 0.448-3.072l5.056-11.968q0.704-1.472 2.304-1.472h13.056q1.6 0 2.368 1.472zM26.112 21.696q0.064-0.704-0.32-1.216t-1.088-0.512h-20.608q-0.704 0-1.088 0.512t-0.32 1.216l0.448 2.368q0.064 0.704 0.608 1.184t1.248 0.48h18.88q0.704 0 1.248-0.48t0.608-1.184z"></path>
</svg>
