<!-- Generated by IcoMoon.io -->
<svg version="1.1" xmlns="http://www.w3.org/2000/svg" width="31" height="32" viewBox="0 0 31 32">
<path d="M9.152 1.408l6.208 5.056-9.088 5.888-6.272-5.248zM20.928 25.536q0.256 0 0.384-0.064l3.712-2.496v1.472l-9.664 6.080-9.664-6.080v-1.472l3.776 2.496q0.128 0.064 0.384 0.064 0.32 0 0.448-0.128l5.056-4.224 5.12 4.224q0.128 0.128 0.448 0.128zM30.72 7.104l-6.208 5.248-9.152-5.888 6.272-5.056zM15.36 18.048l9.152-5.696 5.568 4.48-9.024 5.888zM9.728 22.72l-9.024-5.888 5.568-4.48 9.088 5.696z"></path>
</svg>
