<!-- Generated by IcoMoon.io -->
<svg version="1.1" xmlns="http://www.w3.org/2000/svg" width="25" height="32" viewBox="0 0 25 32">
<path d="M24 6.848q0 0.128 0.16 2.336t0.288 4.608-0.032 5.472-0.608 5.472-1.632 4.032-2.912 1.632q-4.928 0-6.208-0.832-0.832-0.64-0.576-4.16 0.064-1.28 1.184-1.888t2.208-0.608l1.088 0.064-0.128 2.24q-0.384 0.064-1.216 0.064-0.64 0-0.768 0.832-0.128 1.216 1.28 1.344l2.752-0.128q1.216-0.128 0.896-4.352-0.064-0.512-0.576-0.832t-1.088-0.416-1.568-0.256-1.504-0.288q-0.896-0.256-1.472-0.896t-0.864-1.184-0.352-0.544-0.256 1.856-0.96 1.856q-1.408 0-4.448-0.48t-3.68-1.12q-1.088-1.088-1.984-4.768t-0.896-4.832q0-1.088 1.856-0.96h3.712q2.496 0 2.496-2.304 0-0.384-0.032-1.664t-0.032-1.92q0-2.624 1.28-2.624 2.88 0 3.84 0.448 0.576 0.256 0.928 0.832t0.416 1.088l0.128 0.448 6.464 0.384q0.32 0 0.8 0.096t1.248 0.608 0.768 1.344zM20.928 16.512q0.192-0.192-0.064-1.024t-0.928-1.664-1.568-0.832-1.44 0.736-0.672 1.472 0 0.928q0.256 0.192 0.48 0.16t0.832-0.16 0.992-0.128q0.448 0 0.992 0.192t0.896 0.32 0.48 0zM5.504 6.656q0 0.704-0.896 0.704h-4.608l5.632-5.504q-0.128 4.416-0.128 4.8z"></path>
</svg>
