<!-- Generated by IcoMoon.io -->
<svg version="1.1" xmlns="http://www.w3.org/2000/svg" width="29" height="32" viewBox="0 0 29 32">
<path d="M25.824 4.608q1.984 1.984 2.72 4.16t-0.16 2.944l-4.288 4.288q-0.512 0.512-1.984 0.832t-3.072 0.128l-13.056 13.056q-0.576 0.576-1.824 0.192t-2.4-1.6q-1.152-1.152-1.568-2.368t0.16-1.792l13.056-13.056q-0.192-1.6 0.128-3.072t0.832-1.984l4.352-4.352q0.768-0.896 2.944-0.128t4.16 2.752zM11.488 17.664q1.024 1.024 2.56-0.448 1.472-1.472 0.448-2.624-0.448-0.448-1.216-0.32t-1.408 0.768-0.736 1.376 0.352 1.248zM22.24 8.128q0.96 0.96 2.176 1.6t1.984 0.8 0.896 0.032q0.064-0.128-0.128-0.864t-0.832-1.92-1.6-2.144-2.112-1.6-1.888-0.832-0.864-0.064 0.032 0.896 0.8 1.984 1.536 2.112z"></path>
</svg>
