<!-- Generated by IcoMoon.io -->
<svg version="1.1" xmlns="http://www.w3.org/2000/svg" width="20" height="32" viewBox="0 0 20 32">
<path d="M7.68 6.4q0 2.432-2.304 3.52v12.096q2.304 1.088 2.304 3.584 0 1.6-1.12 2.72t-2.72 1.12-2.72-1.12-1.12-2.72q0-2.496 2.304-3.584v-12.096q-2.304-1.088-2.304-3.52 0-1.6 1.12-2.72t2.72-1.12 2.72 1.12 1.12 2.72zM6.080 25.6q0-0.96-0.672-1.6t-1.568-0.64-1.536 0.64-0.64 1.6q0 0.896 0.64 1.536t1.536 0.64 1.568-0.64 0.672-1.536zM3.84 8.576q0.896 0 1.568-0.64t0.672-1.536q0-0.96-0.672-1.6t-1.568-0.64-1.536 0.64-0.64 1.6q0 0.896 0.64 1.536t1.536 0.64zM18.176 22.016q2.304 1.088 2.304 3.584 0 1.6-1.12 2.72t-2.72 1.12-2.72-1.12-1.12-2.72q0-2.496 2.304-3.584v-12.096q-2.304-1.088-2.304-3.52 0-1.6 1.12-2.72t2.72-1.12 2.72 1.12 1.12 2.72q0 2.432-2.304 3.52v12.096zM14.464 6.4q0 0.896 0.64 1.536t1.536 0.64 1.568-0.64 0.672-1.536q0-0.96-0.672-1.6t-1.568-0.64-1.536 0.64-0.64 1.6zM16.64 27.776q0.896 0 1.568-0.64t0.672-1.536q0-0.96-0.672-1.6t-1.568-0.64-1.536 0.64-0.64 1.6q0 0.896 0.64 1.536t1.536 0.64z"></path>
</svg>
