<!-- Generated by IcoMoon.io -->
<svg version="1.1" xmlns="http://www.w3.org/2000/svg" width="20" height="32" viewBox="0 0 20 32">
<path d="M16.64 23.36q1.6 0 2.72 1.12t1.12 2.72-1.12 2.72-2.72 1.12q-2.56 0-3.52-2.368h-5.248q-2.816 0-4.192-1.728t-1.376-3.776v-14.848q-2.304-1.088-2.304-3.52 0-1.6 1.12-2.72t2.72-1.12 2.72 1.12 1.12 2.72q0 2.432-2.304 3.52v3.648q0 2.496 2.496 2.496h5.248q0.96-2.304 3.52-2.304 1.6 0 2.72 1.12t1.12 2.72-1.12 2.72-2.72 1.12q-2.56 0-3.52-2.368h-5.248q-1.344 0-2.496-0.512v6.208q0 2.496 2.496 2.496h5.248q0.96-2.304 3.52-2.304zM16.64 13.76q-0.896 0-1.568 0.64t-0.672 1.6q0 0.896 0.672 1.536t1.568 0.64 1.568-0.64 0.672-1.536q0-0.96-0.672-1.6t-1.568-0.64zM1.6 4.8q0 0.896 0.672 1.536t1.568 0.64 1.568-0.64 0.672-1.536q0-0.96-0.672-1.6t-1.568-0.64-1.568 0.64-0.672 1.6zM16.64 29.376q0.896 0 1.568-0.64t0.672-1.536q0-0.96-0.672-1.6t-1.568-0.64-1.568 0.64-0.672 1.6q0 0.896 0.672 1.536t1.568 0.64z"></path>
</svg>
