<!-- Generated by IcoMoon.io -->
<svg version="1.1" xmlns="http://www.w3.org/2000/svg" width="31" height="32" viewBox="0 0 31 32">
<path d="M15.36 15.872q0.512 0 1.344-0.064t1.312-0.064 1.024 0.128 0.928 0.448q0.832 0.832 0.832 1.92 0 2.048-1.376 2.688t-4.064 0.64-4.064-0.64-1.376-2.688q0-1.088 0.832-1.92 0.384-0.32 0.928-0.448t1.024-0.128 1.312 0.064 1.344 0.064zM12.8 19.968q0.448 0 0.736-0.448t0.288-1.024q0-1.472-1.024-1.472t-1.024 1.472q0 0.576 0.288 1.024t0.736 0.448zM17.92 19.968q0.448 0 0.768-0.448t0.32-1.024q0-0.64-0.32-1.056t-0.768-0.416q-1.024 0-1.024 1.472 0 0.576 0.288 1.024t0.736 0.448zM15.36 0.64q6.4 0 10.88 4.48t4.48 10.88q0 6.336-4.48 10.848t-10.88 4.512q-6.336 0-10.848-4.512t-4.512-10.848q0-6.4 4.512-10.88t10.848-4.48zM16.768 22.272q6.016 0 6.016-5.888 0-1.792-1.216-3.136 0.128-0.128 0.032-1.312t-0.544-2.272q-1.408 0.192-3.648 1.664-0.64-0.192-2.048-0.192-1.28 0-2.048 0.192-0.96-0.64-1.888-1.056t-1.312-0.544l-0.448-0.064q-0.448 1.088-0.544 2.272t0.032 1.312q-1.216 1.344-1.216 3.136 0 5.888 6.016 5.888h2.816z"></path>
</svg>
