<!-- Generated by IcoMoon.io -->
<svg version="1.1" xmlns="http://www.w3.org/2000/svg" width="29" height="32" viewBox="0 0 29 32">
<path d="M17.792 1.28q4.864 0 8.256 3.392t3.392 8.192q0 4.544-3.072 7.904t-7.552 3.68q-1.088 2.752-3.584 4.512t-5.504 1.76q-4.032 0-6.88-2.88t-2.848-6.848q0-3.072 1.728-5.536t4.48-3.552q0.384-4.48 3.712-7.552t7.872-3.072zM9.728 27.456q3.776 0 5.568-3.2-3.328-0.704-5.728-3.104t-3.104-5.728q-3.2 1.792-3.2 5.568 0 2.688 1.888 4.576t4.576 1.888zM9.856 14.528q0.512 2.432 2.24 4.128t4.096 2.208q-0.064-2.56-1.92-4.416t-4.416-1.92zM19.456 20.864q2.816-0.576 4.64-2.816t1.824-5.184q0-3.392-2.4-5.76t-5.728-2.368q-2.88 0-5.152 1.856t-2.784 4.672q3.968 0.064 6.752 2.848t2.848 6.752zM3.328 8.128q-1.344 0-2.336-0.96t-0.992-2.304q0-1.408 0.992-2.368t2.336-0.96q1.408 0 2.368 0.96t0.96 2.368q0 1.344-0.96 2.304t-2.368 0.96zM3.328 3.008q-0.768 0-1.28 0.544t-0.512 1.312q0 0.704 0.512 1.248t1.28 0.544 1.312-0.544 0.544-1.248q0-0.768-0.544-1.312t-1.312-0.544z"></path>
</svg>
