<!-- Generated by IcoMoon.io -->
<svg version="1.1" xmlns="http://www.w3.org/2000/svg" width="31" height="32" viewBox="0 0 31 32">
<path d="M13.888 11.648q0.256 0.96-0.032 1.824t-0.992 1.056h-0.32q-1.344 0-1.92-1.92-0.192-0.96 0.064-1.728 0.32-0.768 0.96-0.96 0.064-0.064 0.32-0.064 1.408 0 1.92 1.792zM15.36 0.64q6.4 0 10.88 4.48t4.48 10.88q0 6.336-4.48 10.848t-10.88 4.512q-6.336 0-10.848-4.512t-4.512-10.848q0-6.4 4.512-10.88t10.848-4.48zM14.464 22.592q1.92-0.96 1.92-3.136 0-1.408-1.664-2.944-0.832-0.704-0.832-1.024 0-0.384 0.64-0.832 1.088-1.088 1.088-2.56 0-1.856-1.152-2.496 0.064-0.064 0.32-0.096t0.32-0.032q1.28-0.128 1.28-0.512v-0.128h-3.712q-0.384 0-1.056 0.128t-1.696 1.024-1.024 2.432q0 1.792 1.216 2.56 0.704 0.512 1.792 0.512h0.192q-0.128 0.768 0.512 1.6h-0.064q-4.416 0-4.416 3.008 0 1.28 0.896 2.016t1.568 0.864 1.248 0.128h0.256q1.28 0 2.368-0.512zM22.592 15.936v-1.536h-2.432v-2.432h-1.536v2.432h-2.432v1.536h2.432v2.432h1.536v-2.432h2.432zM12.544 17.792q1.024 0 1.664 0.544t0.704 1.376-0.608 1.408-1.76 0.64q-1.088 0.128-1.92-0.352t-0.896-1.312q0-0.832 0.704-1.536 0.64-0.64 1.856-0.768h0.256z"></path>
</svg>
