<!-- Generated by IcoMoon.io -->
<svg version="1.1" xmlns="http://www.w3.org/2000/svg" width="32" height="32" viewBox="0 0 32 32">
<path d="M0 16q0-4.352 2.144-8.032t5.824-5.824 8.032-2.144 8.032 2.144 5.824 5.824 2.144 8.032-2.144 8.032-5.824 5.824-8.032 2.144-8.032-2.144-5.824-5.824-2.144-8.032zM4.128 16q0 2.080 1.152 2.464 0.16 0.064 0.544 0.128 1.344 0.032 2.72-1.28 1.312-1.152 1.856-2.88 0.8-2.464 0.32-6.4-0.064-0.384-0.064-0.544-0.096-0.192 0-0.288 0.032-0.096 0.416 0.032 1.216 0.32 2.496 0.928 1.472 0.672 3.264 2.24 1.44 1.248 2.784 2.848 1.056 1.248 2.56 3.328 1.312 1.824 2.816 2.464 0.928 0.32 1.536 0.224t0.928-0.64 0.48-1.184 0.128-1.44q0-1.536-0.384-3.072-0.096-0.384-0.256-0.896-0.448-1.376-1.312-2.688-1.664-2.528-4.32-3.968t-5.696-1.44q-2.112 0-4 0.704-2.56 0.896-4.48 2.848t-2.848 4.544q-0.032 0.16-0.128 0.448t-0.16 0.448q-0.384 1.6-0.352 3.072z"></path>
</svg>
