<!-- Generated by IcoMoon.io -->
<svg version="1.1" xmlns="http://www.w3.org/2000/svg" width="28" height="32" viewBox="0 0 28 32">
<path d="M25.28 6.656q2.24 2.048 2.24 4.992t-2.24 4.992l-11.52 10.56-11.52-10.56q-2.24-2.048-2.24-4.992t2.24-4.992q2.048-1.856 4.864-1.856t4.8 1.856l1.856 1.664 1.792-1.664q2.048-1.856 4.864-1.856t4.864 1.856zM23.552 14.976q1.344-1.28 1.344-3.328 0-2.112-1.216-3.2-1.216-1.216-3.264-1.216-1.664 0-3.328 1.536l-3.328 2.944-3.392-2.944q-1.536-1.536-3.264-1.536-2.048 0-3.328 1.216-1.216 1.152-1.216 3.2 0 2.112 1.408 3.328l9.792 9.152z"></path>
</svg>
