<!-- Generated by IcoMoon.io -->
<svg version="1.1" xmlns="http://www.w3.org/2000/svg" width="25" height="32" viewBox="0 0 25 32">
<path d="M24.768 7.616q0.64 3.712-0.896 6.88t-4.8 3.744q-2.112 0.384-4.16 0.064l-3.776 6.208-2.24 0.384-3.328 5.312q-0.448 0.896-1.472 1.024l-2.432 0.448q-0.384 0.128-0.704-0.128t-0.384-0.704l-0.512-3.136q-0.256-0.96 0.384-1.792l8.256-12.352q-0.768-1.6-1.216-3.84-0.576-3.392 1.696-5.984t5.92-3.232q3.392-0.64 6.24 1.44t3.424 5.664zM20.736 10.048q0.96-1.408 0.672-3.104t-1.632-2.656q-1.344-1.024-2.944-0.704t-2.56 1.728q-0.256 0.384-0.384 0.736t-0.032 0.64 0.16 0.512 0.416 0.544 0.576 0.48 0.704 0.512 0.736 0.544q0.192 0.128 0.704 0.512t0.736 0.512 0.608 0.384 0.608 0.256 0.544-0.032 0.576-0.256 0.512-0.608z"></path>
</svg>
