<!-- Generated by IcoMoon.io -->
<svg version="1.1" xmlns="http://www.w3.org/2000/svg" width="31" height="32" viewBox="0 0 31 32">
<path d="M15.36 0.64q6.336 0 10.848 4.48t4.512 10.88q0 6.336-4.512 10.848t-10.848 4.512q-6.4 0-10.88-4.512t-4.48-10.848q0-6.4 4.48-10.88t10.88-4.48zM19.584 20.48q3.84 0 3.84-2.56 0-2.112-2.432-2.688l-1.216-0.256q-1.024-0.256-1.024-1.088 0-0.96 1.28-0.96 1.408 0 1.472 1.088l1.856-0.192q-0.192-2.368-3.2-2.368-3.264 0-3.264 2.688 0 1.92 2.112 2.432l1.28 0.256q1.28 0.32 1.28 1.152 0 1.024-1.984 1.024-2.432 0-3.2-2.368l-0.64-1.856q-0.576-1.856-1.44-2.592t-2.72-0.736q-1.728 0-3.040 1.28t-1.312 3.392q0 1.984 1.248 3.168t2.976 1.184 2.752-0.832l-0.576-1.6q-0.896 0.896-2.112 0.896-1.024 0-1.76-0.8t-0.736-2.080q0-1.6 0.8-2.336t1.824-0.736q1.088 0 1.568 0.576t0.864 1.792l0.576 1.856q1.024 3.264 4.928 3.264z"></path>
</svg>
