<!-- Generated by IcoMoon.io -->
<svg version="1.1" xmlns="http://www.w3.org/2000/svg" width="30" height="32" viewBox="0 0 30 32">
<path d="M7.552 6.528q5.824-3.392 16.192-2.112 5.376 0.704 6.272 1.6 0.128 0.192-0.064 0.32-2.432 1.28-4.16 3.488t-2.496 4.224-2.080 4.224-2.976 3.36q-4.416 3.072-12.224 0.128-2.112 2.432-3.648 5.632-0.384 0.768-1.504 0.224t-0.8-1.248q1.408-3.2 4.128-6.176t5.632-4.896 5.632-3.392 4.512-2.176l1.728-0.64q-0.448 0-1.312 0.032t-3.328 0.448-4.736 1.216-5.184 2.688-5.152 4.512q-0.704-7.744 5.568-11.456z"></path>
</svg>
