<!-- Generated by IcoMoon.io -->
<svg version="1.1" xmlns="http://www.w3.org/2000/svg" width="22" height="32" viewBox="0 0 22 32">
<path d="M11.2 10.88q2.176 0 3.648 1.504t1.472 3.616q0 2.176-1.472 3.648t-3.648 1.472q-2.112 0-3.616-1.472t-1.504-3.648q0-2.112 1.504-3.616t3.616-1.504zM11.2 19.328q1.408 0 2.336-0.96t0.928-2.368q0-1.344-0.928-2.304t-2.336-0.96q-1.344 0-2.304 0.96t-0.96 2.304q0 1.408 0.96 2.368t2.304 0.96zM1.6 14.72q0.64 0 1.12 0.384t0.48 0.896q0 1.28-1.6 1.28t-1.6-1.28q0-0.512 0.48-0.896t1.12-0.384zM19.072 8.192q0.896 0.896-0.256 2.048-0.448 0.448-1.056 0.512t-0.928-0.32q-0.384-0.384-0.32-0.992t0.512-1.056q1.152-1.088 2.048-0.192zM20.8 14.72q0.64 0 1.12 0.384t0.48 0.896q0 1.28-1.6 1.28-1.536 0-1.536-1.28 0-0.512 0.448-0.896t1.088-0.384zM11.2 24q0.512 0 0.896 0.48t0.384 1.12-0.384 1.12-0.896 0.48-0.896-0.48-0.384-1.12 0.384-1.12 0.896-0.48zM3.584 22.016q1.152-1.152 2.048-0.256t-0.256 2.048q-0.448 0.448-1.056 0.512t-0.928-0.256q-0.96-0.896 0.192-2.048zM3.264 8.256q0.896-0.896 2.048 0.256 0.448 0.448 0.512 1.056t-0.256 0.928q-0.96 0.896-2.048-0.192-1.152-1.152-0.256-2.048zM17.088 23.744q-1.088-1.152-0.192-2.048t2.048 0.256q0.448 0.448 0.512 1.056t-0.32 0.928q-0.96 0.896-2.048-0.192zM11.2 8q-0.512 0-0.896-0.48t-0.384-1.12 0.384-1.12 0.896-0.48 0.896 0.48 0.384 1.12-0.384 1.12-0.896 0.48z"></path>
</svg>
