<!-- Generated by IcoMoon.io -->
<svg version="1.1" xmlns="http://www.w3.org/2000/svg" width="22" height="32" viewBox="0 0 22 32">
<path d="M20.48 11.968q0.64 0 1.28 0.608t0.64 1.312v12.48q0 1.536-1.536 2.112l-1.92 0.576q-1.344 0.512-3.072 0.512h-9.28q-1.792 0-3.136-0.512l-1.92-0.576q-1.536-0.576-1.536-2.112v-12.48q0-0.704 0.48-1.312t1.12-0.608h3.2v-2.24q0-3.52 1.632-5.44t4.768-1.92 4.768 1.92 1.632 5.44v2.24h2.88zM8 9.088v2.88h6.4v-2.88q0-1.664-0.864-2.592t-2.336-0.928-2.336 0.928-0.864 2.592z"></path>
</svg>
