<!-- Generated by IcoMoon.io -->
<svg version="1.1" xmlns="http://www.w3.org/2000/svg" width="28" height="32" viewBox="0 0 28 32">
<path d="M27.776 2.304q0.512 0.512 0.512 1.152t-0.512 1.152l-25.024 25.024q-0.576 0.448-1.088 0.448-0.576 0-1.152-0.448-0.512-0.448-0.512-1.152t0.512-1.152l25.024-25.024q1.088-1.024 2.24 0zM20.864 14.656l1.6-1.6q2.368 2.944 3.232 5.504t-0.224 3.712q-0.768 0.768-2.4 1.824t-4.192 2.272-5.152 1.44-5.28-0.736l8.896-8.832q1.408 1.024 2.816 1.728t2.144 0.8 1.056-0.032q0.192-0.32 0.064-1.088t-0.832-2.176-1.728-2.816zM12.032 12.672l-8.64 8.64q-1.28-4.224 0.896-9.056t4.224-6.88q1.088-1.024 3.36-0.352t5.088 2.72l-1.664 1.6q-1.856-1.216-3.36-1.696t-1.824-0.16q-0.128 0.256-0.064 0.896t0.608 1.856 1.376 2.432z"></path>
</svg>
