<!-- Generated by IcoMoon.io -->
<svg version="1.1" xmlns="http://www.w3.org/2000/svg" width="31" height="32" viewBox="0 0 31 32">
<path d="M27.424 7.296q2.304 1.536 3.232 3.52t0.64 3.328-1.12 1.536q-0.512 0.128-1.728-0.32t-2.56-0.32-2.56 1.472q-0.96 1.472-0.672 2.4t1.088 2.080 0.736 1.6q-0.064 0.832-1.152 2.016t-4.032 2.368-6.912 1.184q-5.952 0-9.312-3.232t-3.040-7.84q0.256-3.776 3.328-7.52t6.912-4.832q9.28-2.688 17.152 2.56zM17.248 22.208q0.96 0 1.664-0.704t0.704-1.728-0.704-1.696-1.664-0.672q-1.024 0-1.728 0.672t-0.704 1.696 0.704 1.728 1.728 0.704z"></path>
</svg>
