<!-- Generated by IcoMoon.io -->
<svg version="1.1" xmlns="http://www.w3.org/2000/svg" width="28" height="32" viewBox="0 0 28 32">
<path d="M24.672 7.68l0.256 0.128q1.216 0.704 1.92 1.984 0.64 1.216 0.64 3.072 0 4.16-3.52 6.72-3.392 2.56-9.792 2.56h-0.96q-0.512 0-1.024 0.384t-0.64 0.896l-1.152 4.992q-0.384 1.344-1.664 1.344h-3.392q-0.576 0-0.896-0.416t-0.192-0.928l0.192-0.768h2.176q0.512 0 1.024-0.416t0.64-0.928l1.152-4.992q0.32-1.28 1.664-1.28h0.96q6.272 0 9.792-2.56 3.52-2.624 3.52-6.72 0-1.792-0.704-3.072zM6.112 24.192q-0.064 0.512-0.576 0.928t-1.024 0.416h-3.456q-0.576 0-0.864-0.416t-0.16-0.928l4.8-20.672q0.32-1.28 1.664-1.28h7.168q2.496 0 4.032 0.256 1.792 0.384 3.008 1.088 1.152 0.768 1.856 1.984 0.64 1.216 0.64 3.072 0 4.16-3.52 6.72-3.392 2.56-9.728 2.56h-1.024q-0.512 0-1.024 0.384t-0.576 0.896zM8.928 12.224q-0.128 0.512 0.192 0.896t0.832 0.384h0.896q2.752 0 4.288-1.152 1.536-1.088 1.536-3.136 0-1.408-0.96-2.048-1.024-0.64-3.008-0.64h-1.088q-1.344 0-1.664 1.28z"></path>
</svg>
