<!-- Generated by IcoMoon.io -->
<svg version="1.1" xmlns="http://www.w3.org/2000/svg" width="31" height="32" viewBox="0 0 31 32">
<path d="M2.112 10.368q-0.832 0-0.704-0.704 0.128-0.32 0.384-0.448 0.064 0 1.568-0.544t2.976-1.024 1.856-0.48h1.408v-4.8h12.16v4.8h1.472q0.384 0 1.824 0.48t2.944 1.024 1.568 0.544q0.576 0.256 0.384 0.832-0.128 0.32-0.64 0.32h-27.2zM29.632 12.16q0.64 0 1.184 0.608t0.544 1.312v5.568q0 0.704-0.544 1.312t-1.184 0.608h-3.2l1.408 8h-24.32l1.408-8h-3.136q-0.64 0-1.216-0.608t-0.576-1.312v-5.568q0-0.704 0.576-1.312t1.216-0.608h27.84zM6.72 26.368h17.92l-2.24-10.368h-13.44z"></path>
</svg>
