<!-- Generated by IcoMoon.io -->
<svg version="1.1" xmlns="http://www.w3.org/2000/svg" width="32" height="32" viewBox="0 0 32 32">
<path d="M28.8 1.6q1.344 0 2.272 0.96t0.928 2.24v19.2q0 1.344-0.928 2.272t-2.272 0.928h-6.336v-3.136h6.4v-14.784h-25.664v14.784h6.4v3.136h-6.4q-1.28 0-2.24-0.928t-0.96-2.272v-19.2q0-1.28 0.96-2.24t2.24-0.96h25.6zM4.16 6.976q1.216 0 1.216-1.216 0-0.512-0.352-0.832t-0.864-0.32-0.864 0.352-0.352 0.8q0 0.512 0.352 0.864t0.864 0.352zM7.36 6.976q1.216 0 1.216-1.216 0-0.512-0.352-0.832t-0.864-0.32-0.864 0.352-0.352 0.8q0 0.512 0.352 0.864t0.864 0.352zM28.864 6.784v-1.984h-19.264v1.984h19.264zM15.936 13.12l7.744 7.68h-4.8v9.6h-5.888v-9.6h-4.8z"></path>
</svg>
