<!-- Generated by IcoMoon.io -->
<svg version="1.1" xmlns="http://www.w3.org/2000/svg" width="30" height="32" viewBox="0 0 30 32">
<path d="M25.984 20.8q0.96 0.704 1.216 1.696t-0.384 1.952q-3.52 4.928-9.536 5.984t-11.008-2.464q-0.768-0.512-1.216-0.96 2.432 0.768 4.736 0.8t4.096-0.576 3.232-1.376 2.56-1.824 1.696-1.664 0.896-1.12q0.64-0.96 1.696-1.056t2.016 0.608zM6.4 19.84q0.448 1.024 0.032 1.952t-1.504 1.44q-1.024 0.512-2.048 0.224t-1.472-1.312q-2.56-5.504-0.448-11.264t7.616-8.32q0.768-0.32 1.408-0.512-2.688 2.432-3.936 5.44t-1.024 5.696 0.576 4.16 0.8 2.496zM16.064 1.28q6.080 0.576 9.984 5.248t3.392 10.752q-0.128 1.024-0.256 1.536-0.64-2.944-2.144-5.216t-3.136-3.488-3.52-2.016-2.944-1.024-1.824-0.288q-1.088-0.064-1.728-0.928t-0.512-2.016q0.128-1.216 0.832-1.92t1.856-0.64zM9.792 16.832q0.512-1.216 1.088-1.472v-0.192q0-0.384 0.256-0.768v-0.064q0-0.256 0.064-0.384 0.128-1.6 1.056-2.624t2.528-1.024q1.536 0 2.496 1.024t1.024 2.624q0.064 0.128 0.064 0.384v0.064q0.256 0.256 0.256 0.768v0.192q0.576 0.256 1.088 1.472 0.832 1.728 0.192 2.112-0.384 0.192-0.96-0.704-0.192 0.896-0.96 1.472 0.832 0.32 0.832 0.832 0 0.448-0.576 0.736t-1.408 0.288q-1.664 0-1.92-0.832h-0.256q-0.384 0.832-1.984 0.832-0.832 0-1.408-0.288t-0.576-0.736q0-0.512 0.832-0.832-0.768-0.64-0.96-1.472-0.576 0.896-0.896 0.704-0.704-0.32 0.128-2.112z"></path>
</svg>
