<!-- Generated by IcoMoon.io -->
<svg version="1.1" xmlns="http://www.w3.org/2000/svg" width="29" height="32" viewBox="0 0 29 32">
<path d="M28.608 19.2q0.832 1.856 0.832 3.776 0 3.456-2.4 5.92t-5.728 2.464q-1.984 0-3.84-1.024-1.664 0.256-2.56 0.256-5.824 0-9.952-4.224t-4.128-10.24q0-1.408 0.32-2.88-1.152-1.92-1.152-4.288 0-3.456 2.368-5.888t5.76-2.432q2.368 0 4.352 1.28 1.024-0.256 2.432-0.256 5.824 0 9.92 4.224t4.096 10.24q0 1.472-0.32 3.072zM22.080 23.040q0.96-1.472 0.96-3.2 0-1.408-0.512-2.56-0.512-0.96-1.6-1.728-1.152-0.704-2.432-1.152-2.176-0.64-3.072-0.832-0.448-0.064-1.12-0.224t-0.864-0.224q-0.768-0.256-1.088-0.448-0.512-0.256-0.832-0.704-0.32-0.32-0.32-0.832 0-0.768 0.896-1.344 0.832-0.64 2.432-0.64t2.368 0.576q0.832 0.704 1.216 1.6 0.512 0.832 0.832 1.152 0.512 0.384 1.216 0.384 0.832 0 1.472-0.64 0.576-0.576 0.576-1.408 0-0.64-0.448-1.664-0.512-0.768-1.344-1.536-0.896-0.704-2.368-1.216-1.536-0.448-3.264-0.448-2.304 0-4.096 0.704-1.792 0.64-2.752 1.92t-0.96 2.944 0.896 2.88q1.088 1.28 2.432 1.792 1.536 0.704 3.712 1.152 0.384 0.064 0.928 0.224t0.96 0.256 0.672 0.16q0.896 0.32 1.472 0.896 0.576 0.448 0.576 1.344 0 1.088-1.024 1.792-1.152 0.768-2.88 0.768-1.28 0-2.048-0.384-0.832-0.448-1.152-0.896-0.768-1.408-0.832-1.472-0.256-0.768-0.768-1.28-0.64-0.448-1.28-0.448-0.896 0-1.472 0.576t-0.576 1.344q0 1.216 0.896 2.624 0.832 1.28 2.304 2.112 2.048 1.088 5.056 1.088 2.496 0 4.416-0.768 1.92-0.896 2.816-2.24z"></path>
</svg>
