<!-- Generated by IcoMoon.io -->
<svg version="1.1" xmlns="http://www.w3.org/2000/svg" width="31" height="32" viewBox="0 0 31 32">
<path d="M18.816 15.744q0.64 0.384 0.896 0.96 0.32 0.64 0.32 1.408 0 1.024-0.576 1.792-0.384 0.704-1.536 1.28-1.216 0.448-2.496 0.448-1.728 0-2.816-0.64-0.704-0.384-1.28-1.152-0.512-0.832-0.512-1.472 0-0.448 0.32-0.768 0.448-0.32 0.832-0.32 0.448 0 0.704 0.256 0.256 0.128 0.448 0.704 0.064 0.192 0.224 0.48t0.224 0.352q0.192 0.256 0.64 0.512 0.512 0.192 1.152 0.192 1.024 0 1.6-0.384 0.576-0.448 0.576-1.024 0-0.512-0.32-0.768-0.32-0.32-0.832-0.512-0.192-0.064-0.672-0.16t-0.736-0.16q-0.64-0.128-2.112-0.64-0.64-0.32-1.344-1.024-0.512-0.704-0.512-1.664 0-0.896 0.576-1.6 0.512-0.704 1.536-1.088 0.96-0.384 2.304-0.384 1.088 0 1.792 0.256 0.64 0.128 1.344 0.64 0.576 0.576 0.768 0.896 0.192 0.512 0.192 0.96t-0.32 0.768-0.768 0.32q-0.384 0-0.704-0.192-0.256-0.256-0.448-0.64-0.32-0.576-0.704-0.896-0.32-0.32-1.344-0.32-0.832 0-1.344 0.32-0.512 0.384-0.512 0.768 0 0.32 0.192 0.512 0.256 0.256 0.448 0.32 0.128 0.064 0.64 0.256 0.576 0.192 1.088 0.32 1.152 0.256 1.728 0.448 0.896 0.32 1.344 0.64zM15.36 0.64q6.4 0 10.88 4.48t4.48 10.88q0 6.336-4.48 10.848t-10.88 4.512q-6.336 0-10.848-4.512t-4.512-10.848q0-6.4 4.512-10.88t10.848-4.48zM19.072 24.576q1.856 0 3.2-1.376t1.344-3.296q0-1.088-0.512-2.112 0.192-0.896 0.192-1.728 0-3.328-2.304-5.696t-5.568-2.368q-0.896 0-1.344 0.064-1.088-0.704-2.368-0.704-1.92 0-3.264 1.376t-1.344 3.296q0 1.28 0.64 2.432-0.128 0.512-0.128 1.6 0 3.328 2.304 5.696t5.504 2.368q1.024 0 1.472-0.128 0.96 0.576 2.176 0.576z"></path>
</svg>
