<!-- Generated by IcoMoon.io -->
<svg version="1.1" xmlns="http://www.w3.org/2000/svg" width="30" height="32" viewBox="0 0 30 32">
<path d="M13.376 18.048q4.8 1.856 5.12 4.544 0.256 1.92-1.792 2.688-0.704 0.32-1.6 0.32-1.792 0-3.52-0.64t-2.496-1.28l-0.832-0.576-2.368 5.44q2.048 1.024 4.352 1.792l-2.56 0.64q-0.896 0.192-1.664-0.288t-1.024-1.376l-4.928-20.672q-0.192-0.896 0.288-1.696t1.376-0.992l5.952-1.408q-2.112 2.304-1.92 5.824 0.192 2.496 2.304 4.512t5.312 3.168zM30.016 23.296q0.256 0.896-0.256 1.696t-1.408 0.992l-4.352 1.088q1.344-1.856 1.408-4.352 0.128-2.816-1.728-5.248t-5.952-3.776q-4.864-1.664-5.056-4.032-0.192-1.664 1.792-2.304 0.768-0.32 1.728-0.256 1.856 0.064 3.264 0.544t1.92 0.928l0.512 0.448 1.856-5.12q-2.56-1.344-5.632-1.92l4.288-1.024q0.896-0.192 1.664 0.288t1.024 1.376z"></path>
</svg>
