<!-- Generated by IcoMoon.io -->
<svg version="1.1" xmlns="http://www.w3.org/2000/svg" width="31" height="32" viewBox="0 0 31 32">
<path d="M15.36 0.64q6.336 0 10.848 4.48t4.512 10.88q0 3.84-1.792 7.168t-4.864 5.44q-3.456-5.952-10.816-6.144-5.632-0.192-9.472 3.648-3.776-4.416-3.776-10.112 0-6.4 4.48-10.88t10.88-4.48zM22.848 21.44q0.448-0.832-0.32-1.28-6.016-3.648-14.72-1.728-0.96 0.256-0.704 1.152 0.256 0.96 1.152 0.704 7.872-1.856 13.312 1.472 0.832 0.448 1.28-0.32zM24.704 17.088q0.576-1.088-0.384-1.6-3.52-2.176-8.192-2.72t-8.832 0.672q-1.088 0.32-0.768 1.472 0.32 1.088 1.472 0.832 3.584-1.088 7.808-0.608t7.296 2.336q1.024 0.64 1.6-0.384zM24.832 12.544q1.216 0.768 1.984-0.448 0.64-1.216-0.512-1.984-4.032-2.368-10.048-2.848t-9.792 0.864q-0.576 0.128-0.864 0.672t-0.096 1.056q0.192 0.576 0.704 0.864t1.088 0.096q3.264-1.152 8.672-0.736t8.864 2.464zM13.184 27.072q4.16 0.128 5.952 3.776-1.92 0.512-3.776 0.512-4.032 0-7.488-1.984 2.112-2.368 5.312-2.304z"></path>
</svg>
