<!-- Generated by IcoMoon.io -->
<svg version="1.1" xmlns="http://www.w3.org/2000/svg" width="28" height="32" viewBox="0 0 28 32">
<path d="M14.080 1.92q5.824 0 9.952 4.128t4.128 9.952q0 3.52-1.632 6.56t-4.448 5.024q-3.2-5.44-9.92-5.632-5.184-0.192-8.704 3.328-3.456-3.968-3.456-9.28 0-5.888 4.096-9.984t9.984-4.096zM20.928 20.992q0.512-0.704-0.256-1.216-5.504-3.392-13.504-1.536-0.832 0.256-0.64 1.024 0.192 0.832 1.024 0.704 7.296-1.728 12.224 1.28 0.704 0.448 1.152-0.256zM22.656 17.024q0.576-0.96-0.384-1.536-3.2-1.984-7.52-2.464t-8.032 0.608q-1.024 0.32-0.768 1.408 0.384 1.024 1.344 0.704 3.328-1.024 7.2-0.576t6.688 2.176q0.896 0.64 1.472-0.32zM22.784 12.864q1.088 0.64 1.792-0.448 0.64-1.088-0.448-1.792-3.712-2.176-9.216-2.624t-9.024 0.768q-0.448 0.128-0.704 0.608t-0.128 0.992q0.32 1.216 1.6 0.896 3.008-1.088 7.968-0.704t8.16 2.304zM12.032 26.112q3.84 0.192 5.504 3.52-2.048 0.448-3.456 0.448-3.648 0-6.848-1.792 1.856-2.304 4.8-2.176z"></path>
</svg>
