<!-- Generated by IcoMoon.io -->
<svg version="1.1" xmlns="http://www.w3.org/2000/svg" width="32" height="32" viewBox="0 0 32 32">
<path d="M17.664 12.864v-1.92q0-0.704-0.48-1.184t-1.184-0.48q-0.64 0-1.152 0.48t-0.512 1.184v10.048q0 2.944-2.112 5.056t-5.056 2.112-5.056-2.112-2.112-5.056v-4.224h5.504v4.224q0 0.64 0.512 1.152t1.152 0.512 1.152-0.512 0.512-1.152v-10.048q0-2.944 2.112-5.024t5.056-2.080 5.056 2.080 2.112 5.024v1.92l-3.264 1.088zM26.56 16.768h5.44v4.224q0 2.944-2.112 5.056t-5.056 2.112-5.056-2.112-2.112-5.056v-4.288l2.24 1.024 3.264-1.024v4.288q0 0.64 0.512 1.152t1.152 0.512q0.704 0 1.216-0.48t0.512-1.184v-4.224z"></path>
</svg>
