<!-- Generated by IcoMoon.io -->
<svg version="1.1" xmlns="http://www.w3.org/2000/svg" width="31" height="32" viewBox="0 0 31 32">
<path d="M15.36 0.64q6.336 0 10.848 4.48t4.512 10.88q0 6.336-4.512 10.848t-10.848 4.512q-6.4 0-10.88-4.512t-4.48-10.848q0-6.4 4.48-10.88t10.88-4.48zM15.36 12.416q0.832 0 0.832 0.832v0.96l1.088 0.576 1.664-0.576v-0.96q0-1.472-1.056-2.528t-2.528-1.056-2.56 1.056-1.088 2.528v5.12q0 0.832-0.832 0.832t-0.832-0.832v-2.176h-2.816v2.176q0 1.472 1.088 2.528t2.56 1.056 2.528-1.056 1.056-2.528v-5.12q0-0.832 0.896-0.832zM23.424 18.368v-2.176h-2.752v2.176q0 0.832-0.832 0.832-0.896 0-0.896-0.832v-2.176l-1.664 0.512-1.088-0.512v2.176q0 1.472 1.056 2.528t2.592 1.056q1.472 0 2.528-1.056t1.056-2.528z"></path>
</svg>
