<!-- Generated by IcoMoon.io -->
<svg version="1.1" xmlns="http://www.w3.org/2000/svg" width="31" height="32" viewBox="0 0 31 32">
<path d="M30.208 0.64q1.152 3.392-0.256 6.368t-4.096 5.024l0.576 0.768q0.512 0.896 0.192 1.728l-1.536 5.056q-0.384 0.96-1.152 1.472l-14.848 10.496q-1.344 0.96-2.048-0.128l-6.72-9.728q-0.384-0.576-0.288-1.248t0.672-1.056l14.848-10.496q0.832-0.576 1.728-0.576h5.056q0.96 0 1.536 0.832l0.896 1.28q5.376-4.16 3.648-9.152-0.32-0.896 0.576-1.28 1.024-0.256 1.216 0.64zM23.296 15.616q1.28-1.024 1.088-2.56l-1.024 0.512q-0.256 0.128-0.384 0.128-0.576 0-0.896-0.576-0.384-0.96 0.512-1.28l0.768-0.448q-1.536-1.088-2.944 0-0.896 0.576-1.088 1.632t0.448 1.952q0.576 0.832 1.632 1.024t1.888-0.384z"></path>
</svg>
