<!-- Generated by IcoMoon.io -->
<svg version="1.1" xmlns="http://www.w3.org/2000/svg" width="28" height="32" viewBox="0 0 28 32">
<path d="M13.76 2.24q5.696 0 9.728 4.032t4.032 9.728-4.032 9.728-9.728 4.032-9.728-4.032-4.032-9.728 4.032-9.728 9.728-4.032zM14.912 27.136q3.968-0.448 6.784-3.264t3.2-6.784h-6.144v-2.24h6.144q-0.384-3.968-3.2-6.784t-6.784-3.264v6.208h-2.24v-6.208q-3.968 0.448-6.816 3.264t-3.232 6.784h6.208v2.24h-6.208q0.384 3.968 3.232 6.784t6.816 3.264v-6.208h2.24v6.208z"></path>
</svg>
