<!-- Generated by IcoMoon.io -->
<svg version="1.1" xmlns="http://www.w3.org/2000/svg" width="28" height="32" viewBox="0 0 28 32">
<path d="M20.736 14.72c0.128 0.064 0.256 0.128 0.384 0.192 1.824 0.864 3.168 2.208 3.872 3.84 0.96 2.272 1.056 5.984-1.92 8.928-2.24 2.272-4.992 3.296-8.896 3.328h-0.032c-4.384-0.032-7.744-1.504-10.016-4.384-2.016-2.56-3.072-6.144-3.104-10.592v-0.032c0.032-4.48 1.088-8.064 3.104-10.624 2.272-2.88 5.632-4.352 10.016-4.384h0.032c4.384 0.032 7.808 1.504 10.144 4.384 1.152 1.408 1.984 3.104 2.528 5.088l-2.528 0.672c-0.448-1.6-1.12-2.976-2.016-4.064-1.824-2.24-4.544-3.392-8.16-3.424-3.552 0.032-6.24 1.184-8 3.392-1.632 2.080-2.496 5.088-2.528 8.96 0.032 3.84 0.896 6.88 2.528 8.96 1.76 2.208 4.448 3.36 8 3.392 3.232-0.032 5.344-0.768 7.136-2.56 2.016-2.016 1.952-4.48 1.312-5.984-0.384-0.896-1.056-1.632-1.984-2.176-0.224 1.664-0.736 3.008-1.536 4.032-1.088 1.376-2.592 2.112-4.544 2.208-1.472 0.096-2.912-0.256-4-0.992-1.312-0.864-2.048-2.176-2.144-3.712-0.16-3.008 2.24-5.184 5.952-5.408 1.312-0.064 2.56 0 3.712 0.192-0.16-0.928-0.48-1.664-0.928-2.208-0.64-0.736-1.6-1.088-2.88-1.12h-0.064c-1.024 0-2.432 0.288-3.328 1.664l-2.144-1.472c1.216-1.824 3.136-2.816 5.504-2.816h0.032c3.904 0 6.24 2.464 6.496 6.72h-0.032zM10.976 19.040c0.064 1.568 1.76 2.304 3.392 2.208 1.6-0.096 3.424-0.736 3.744-4.576-0.832-0.192-1.76-0.288-2.72-0.288-0.288 0-0.608 0-0.896 0.032-2.688 0.16-3.584 1.44-3.52 2.592v0.032z"></path>
</svg>
