<!-- Generated by IcoMoon.io -->
<svg version="1.1" xmlns="http://www.w3.org/2000/svg" width="31" height="32" viewBox="0 0 31 32">
<path d="M15.36 19.328q-2.88 0-4.992-0.864t-2.24-2.080q1.408-3.968 1.792-5.056 0.32 0.896 1.888 1.472t3.552 0.576q2.048 0 3.584-0.576t1.856-1.472q0.384 1.088 1.792 5.056-0.128 1.216-2.24 2.080t-4.992 0.864zM15.36 8.64q-3.072 0-3.968-1.408l1.664-4.544q0.32-1.088 2.304-1.088t2.368 1.088q0.384 1.216 1.6 4.544-0.896 1.408-3.968 1.408zM29.44 20.928q1.28 0.512 1.312 1.312t-1.184 1.504l-11.264 6.016q-1.216 0.704-2.912 0.704t-2.912-0.704l-11.328-6.016q-1.216-0.64-1.152-1.472t1.344-1.344l6.016-2.432-0.704 1.92q0 1.536 2.56 2.624t6.144 1.088 6.144-1.088 2.624-2.624l-0.704-1.92z"></path>
</svg>
