<!-- Generated by IcoMoon.io -->
<svg version="1.1" xmlns="http://www.w3.org/2000/svg" width="24" height="32" viewBox="0 0 24 32">
<path d="M1.6 12.544q3.904 2.24 10.56 2.24t10.56-2.24l-1.728 15.552q-0.064 0.448-1.12 1.152t-3.2 1.376-4.512 0.672-4.48-0.672-3.2-1.376-1.152-1.152zM17.216 2.944q3.008 0.576 5.056 1.76t2.048 2.272v0.32q0 1.856-3.584 3.168t-8.576 1.312-8.576-1.312-3.584-3.168v-0.32q0-1.088 2.048-2.272t5.056-1.76l1.344-1.536q0.704-0.832 2.24-0.832h2.944q1.664 0 2.24 0.832zM15.488 6.528h2.688q-2.944-3.52-3.328-4.032-0.448-0.512-1.024-0.512h-3.264q-0.704 0-1.024 0.512l-3.392 4.032h2.688l2.048-2.112h2.624z"></path>
</svg>
