<!-- Generated by IcoMoon.io -->
<svg version="1.1" xmlns="http://www.w3.org/2000/svg" width="18" height="32" viewBox="0 0 18 32">
<path d="M17.92 29.056q-1.536 0.832-3.392 1.28-1.536 0.384-3.264 0.384-1.856 0-3.52-0.512-1.728-0.64-2.624-1.472-1.152-1.024-1.472-2.048-0.448-0.96-0.448-3.072v-10.304h-3.2v-4.16q1.728-0.576 2.944-1.6t1.984-2.56q0.768-1.664 0.96-3.712h4.16v7.424h6.912v4.608h-6.912v7.552q0 2.688 0.256 3.264 0.32 0.768 1.024 1.152 0.896 0.64 2.176 0.64 2.176 0 4.416-1.472v4.608z"></path>
</svg>
