<!-- Generated by IcoMoon.io -->
<svg version="1.1" xmlns="http://www.w3.org/2000/svg" width="31" height="32" viewBox="0 0 31 32">
<path d="M15.36 0.64q6.4 0 10.88 4.48t4.48 10.88q0 6.336-4.48 10.848t-10.88 4.512q-6.336 0-10.848-4.512t-4.512-10.848q0-6.4 4.512-10.88t10.848-4.48zM22.4 12.992q0.448-2.624-1.536-3.008-1.92-0.448-3.52 1.28-0.896 0.896-1.088 2.112 1.216-0.768 1.792 0.032t-0.064 2.016q-1.408 2.688-2.048 2.688-0.448 0-1.152-3.008-0.128-0.448-0.256-1.28t-0.256-1.44-0.384-1.248-0.64-0.928-0.96-0.16q-0.832 0.192-1.92 1.024t-1.792 1.6l-0.64 0.768 0.576 0.768q0.128-0.128 0.32-0.256t0.704-0.32 0.64 0.064q0.192 0.256 1.184 3.616t1.248 3.872q0.448 0.896 1.216 1.376t1.856-0.032q1.728-1.152 3.968-3.84t2.752-5.696z"></path>
</svg>
