<!-- Generated by IcoMoon.io -->
<svg version="1.1" xmlns="http://www.w3.org/2000/svg" width="29" height="32" viewBox="0 0 29 32">
<path d="M28.672 9.344q-1.024 5.952-5.472 11.232t-7.84 7.584q-1.344 0.896-2.592 0.544t-2.112-1.216-1.376-1.952q-0.512-1.024-2.496-7.648t-2.368-7.136q-0.512-0.384-1.216-0.16t-1.408 0.672l-0.64 0.448-1.152-1.6q0.576-0.64 1.472-1.664t3.2-2.848 3.968-2.144q0.96-0.192 1.696 0.224t1.152 1.12 0.736 1.92 0.48 2.24 0.384 2.4 0.416 2.144q0.448 1.728 0.672 2.56t0.544 1.728 0.576 1.248 0.576 0.352q1.28 0 4.032-5.312 1.344-2.432 0.192-3.968t-3.584-0.064q0.704-4.032 4.48-6.016 3.328-1.728 5.824-0.256 2.56 1.472 1.856 5.568z"></path>
</svg>
