<!-- Generated by IcoMoon.io -->
<svg version="1.1" xmlns="http://www.w3.org/2000/svg" width="39" height="32" viewBox="0 0 39 32">
<path d="M0 6.272q0.32-0.256 0.8-0.384 0.448-0.128 0.8-0.128h0.288q0.32 0 0.768 0.032 0.704 0.032 1.024 0.032 0.192 0 1.216-0.064 0.512-0.032 0.928-0.032t0.736 0.032q0.64 0.064 1.024 0.256 0.192 0.096 0.416 0.416t0.384 0.608 0.352 0.8 0.32 0.704q1.216 2.624 3.008 5.216 0.064 0.096 0.224 0.352t0.288 0.384 0.288 0.384 0.32 0.352 0.352 0.256 0.352 0.192 0.384 0q0.896-0.16 0.992-3.744 0.032-0.608 0.032-1.12 0-2.368-0.48-3.264-0.192-0.352-0.48-0.576t-0.8-0.384-0.736-0.32q0.448-0.896 1.6-1.184t3.072-0.288h1.696t0.832 0 0.864 0.096l0.704 0.192t0.64 0.288 0.384 0.448q0.288 0.576 0.352 1.344 0 0.224 0.032 0.448 0 0.64-0.096 1.664-0.128 1.344-0.128 1.664-0.096 0.736-0.096 1.472 0 0.576 0.064 1.216 0.128 1.408 0.96 1.952 0.288-0.032 0.544-0.128t0.48-0.352 0.352-0.384 0.416-0.512 0.32-0.448q1.504-1.984 3.008-5.216l0.288-0.736t0.384-0.832 0.384-0.64 0.48-0.416q0.512-0.224 1.216-0.224h0.288q0.64 0 1.472 0.064 1.024 0.064 1.504 0.064 0.288 0 0.896-0.032t1.024-0.064 0.96 0.032 0.8 0.192 0.448 0.416q0.096 0.192 0.096 0.416 0 0.928-1.12 2.784-0.544 0.928-1.088 1.664t-1.472 1.856-1.184 1.504q-0.064 0.064-0.448 0.576t-0.544 0.768-0.384 0.704-0.16 0.864q0 0.256 0.096 0.48t0.32 0.48 0.32 0.384 0.416 0.416 0.384 0.352q2.272 2.080 3.584 3.744 1.28 1.664 1.28 2.4 0 1.056-1.632 1.312-0.832 0.128-1.696 0.128-0.672 0-1.376-0.096-0.64-0.064-1.184-0.064-0.832 0-1.44 0.16h-0.192q-2.112-0.352-4.448-3.008-0.128-0.128-0.544-0.672t-0.704-0.8-0.736-0.544-0.864-0.192q-0.736 0.128-0.96 0.928t-0.288 1.888-0.32 1.568q-0.416 0.768-2.528 0.768-0.896 0-2.112-0.128-2.496-0.256-4.512-1.28t-3.232-2.176-2.592-2.944q-3.328-4.256-6.304-10.304-0.096-0.192-0.352-0.736t-0.384-0.8-0.288-0.768-0.256-0.896-0.096-0.832z"></path>
</svg>
