<!-- Generated by IcoMoon.io -->
<svg version="1.1" xmlns="http://www.w3.org/2000/svg" width="40" height="32" viewBox="0 0 40 32">
<path d="M0 21.504q0-5.152 5.888-11.104 3.744-3.712 7.552-5.184 1.792-0.736 3.104-0.736 1.44 0 2.304 0.864 0.832 0.832 0.832 2.304 0 0.992-0.384 2.304-0.128 0.448 0.096 0.544t0.512 0.032l0.32-0.128q3.072-1.28 5.44-1.28t3.392 1.344q0.48 0.704 0.48 1.664 0 0.992-0.512 2.272-0.224 0.32-0.064 0.544t0.256 0.288 0.448 0.16q1.984 0.608 3.392 1.984t1.408 3.424q0 1.888-1.312 3.84t-3.552 3.616-5.696 2.688-7.328 1.056q-4.192 0-7.904-1.216t-6.208-3.712-2.464-5.568zM4 23.040q0.32 3.232 4 5.152 2.944 1.568 6.688 1.568 0.928 0 1.92-0.096 4.896-0.48 8.16-3.104 2.944-2.4 2.944-5.28 0-0.288-0.032-0.576-0.32-3.2-4-5.12-2.976-1.568-6.72-1.568-0.928 0-1.888 0.096-3.232 0.32-5.856 1.632t-4.032 3.232q-1.216 1.696-1.216 3.488 0 0.288 0.032 0.576zM9.12 25.024q-0.416-0.928-0.416-1.888 0-1.12 0.576-2.24 0.992-2.048 3.328-3.072 1.44-0.64 2.912-0.64 0.864 0 1.728 0.224 2.432 0.64 3.488 2.624 0.544 1.024 0.544 2.112 0 1.024-0.48 2.080-0.992 2.272-3.488 3.328-1.408 0.608-2.816 0.608-1.088 0-2.144-0.352-2.336-0.736-3.232-2.784zM10.912 24.416q0.192 0.8 0.96 1.12 0.416 0.192 0.864 0.192 0.384 0 0.768-0.128 0.896-0.288 1.376-1.056 0.32-0.512 0.32-1.024 0-0.224-0.096-0.48-0.192-0.768-0.96-1.088-0.416-0.16-0.832-0.16-0.384 0-0.8 0.128-0.864 0.288-1.312 1.024-0.352 0.512-0.352 1.056 0 0.224 0.064 0.416zM15.424 21.888q0.096 0.288 0.416 0.416 0.16 0.064 0.32 0.064t0.288-0.064q0.352-0.128 0.512-0.416t0.064-0.576-0.384-0.416q-0.288-0.096-0.608 0t-0.512 0.416q-0.096 0.192-0.096 0.384v0.192zM25.696 2.016q-0.032-0.16-0.032-0.32 0-0.416 0.256-0.8 0.32-0.512 0.928-0.672 1.088-0.224 2.176-0.224 1.632 0 3.2 0.48 2.656 0.864 4.576 2.976t2.496 4.896q0.224 1.12 0.224 2.176 0 1.632-0.512 3.136v0.032q-0.192 0.576-0.736 0.864-0.352 0.16-0.704 0.16-0.224 0-0.48-0.064-0.608-0.192-0.864-0.736-0.16-0.352-0.16-0.672 0-0.256 0.064-0.48v-0.032q0.352-1.088 0.352-2.24 0-0.736-0.128-1.536-0.416-1.984-1.792-3.488t-3.264-2.112q-1.12-0.32-2.24-0.32-0.768 0-1.568 0.16-0.16 0.032-0.32 0.032-0.448 0-0.832-0.256-0.512-0.352-0.64-0.96zM26.976 7.040q-0.032-0.16-0.032-0.32 0-0.32 0.192-0.672 0.288-0.448 0.832-0.576 0.608-0.128 1.184-0.128 2.144 0 3.68 1.696 0.928 1.056 1.216 2.4 0.096 0.544 0.096 1.056 0 0.768-0.256 1.536-0.16 0.512-0.64 0.736-0.288 0.16-0.576 0.16-0.224 0-0.416-0.064-0.512-0.16-0.768-0.64-0.128-0.288-0.128-0.576 0-0.224 0.064-0.416 0.128-0.448 0.128-0.832 0-0.896-0.672-1.6-0.704-0.832-1.728-0.832-0.32 0-0.64 0.064-0.16 0.032-0.288 0.032-0.352 0-0.672-0.224-0.448-0.288-0.576-0.8z"></path>
</svg>
