<!-- Generated by IcoMoon.io -->
<svg version="1.1" xmlns="http://www.w3.org/2000/svg" width="39" height="32" viewBox="0 0 39 32">
<path d="M0 28.576l3.36-11.872q1.12-0.64 2.752-0.992t2.656-0.416l1.088-0.032q1.6 0 3.328 0.32 3.232 0.64 4.608 1.952l-3.328 11.84q-1.152-0.896-2.528-1.44t-2.208-0.672l-0.832-0.128q-1.088-0.096-2.080-0.096-0.512 0-1.344 0.032t-2.688 0.448-2.784 1.056zM4.032 13.312l3.36-11.872q1.12-0.64 2.752-1.024t2.688-0.384l1.056-0.032q1.632 0 3.328 0.32 3.232 0.64 4.608 1.952l-3.328 11.872q-1.152-0.896-2.528-1.472t-2.208-0.64l-0.832-0.128q-1.12-0.096-2.048-0.096-0.512 0-1.344 0.032t-2.688 0.416-2.816 1.056zM17.824 29.728l3.328-11.872q1.184 0.896 2.592 1.44t2.176 0.672l0.8 0.128q1.088 0.096 2.080 0.096 0.512 0 1.376-0.064t2.688-0.416 2.752-1.024l-3.328 11.872q-1.12 0.64-2.752 0.992t-2.688 0.384l-1.056 0.064q-1.632 0-3.328-0.32-3.232-0.64-4.64-1.952zM21.664 14.528l3.328-11.84q1.184 0.896 2.592 1.44t2.176 0.672l0.8 0.128q1.088 0.096 2.080 0.096 0.512 0 1.376-0.064t2.656-0.416 2.784-1.024l-3.328 11.84q-1.12 0.64-2.752 0.992t-2.72 0.416l-1.056 0.064q-1.664 0-3.296-0.352-3.232-0.608-4.64-1.952z"></path>
</svg>
