<svg viewBox="0 0 640 512" xmlns="http://www.w3.org/2000/svg"><path d="m144 480c-79.5 0-144-64.5-144-144 0-62.8 40.2-116.2 96.2-135.9-.1-2.7-.2-5.4-.2-8.1 0-88.4 71.6-160 160-160 59.3 0 111 32.2 138.7 80.2 15.2-10.2 33.6-16.2 53.3-16.2 53 0 96 43 96 96 0 12.2-2.3 23.8-6.4 34.6 58.4 11.8 102.4 63.5 102.4 125.4 0 70.7-57.3 128-128 128zm79-167 80 80c9.4 9.4 24.6 9.4 33.9 0l80-80c9.4-9.4 9.4-24.6 0-33.9s-24.6-9.4-33.9 0l-39 39v-134.1c0-13.3-10.7-24-24-24s-24 10.7-24 24v134.1l-39-39c-9.4-9.4-24.6-9.4-33.9 0s-9.4 24.6 0 33.9z"/></svg>