<svg width="1673" height="150" viewBox="0 0 1673 150" fill="none" xmlns="http://www.w3.org/2000/svg">
<g clip-path="url(#clip0_149_824)">
<rect width="1673" height="150" rx="18" fill="#F6ECE3"/>
<g clip-path="url(#clip1_149_824)">
<path d="M1234.75 -18.625C1234.73 -12.344 1237.78 -8.781 1244.75 -8.625C1238.29 -8.65 1235.08 -5.184 1234.75 1.375C1234.69 -4.812 1231.92 -8.634 1224.75 -8.625C1231.17 -8.715 1234.73 -11.812 1234.75 -18.625Z" fill="#B79E5D" stroke="#B79E5D" stroke-linecap="round" stroke-linejoin="round"/>
<path d="M1245.25 -1.375V2.625" stroke="#B79E5D" stroke-linecap="round" stroke-linejoin="round"/>
<path d="M1243.25 0.625H1247.25" stroke="#B79E5D" stroke-linecap="round" stroke-linejoin="round"/>
</g>
<g clip-path="url(#clip2_149_824)">
<path d="M602.752 57.375C602.727 63.656 605.781 67.219 612.752 67.375C606.287 67.35 603.08 70.816 602.752 77.375C602.689 71.188 599.924 67.366 592.752 67.375C599.168 67.285 602.727 64.188 602.752 57.375Z" fill="#B79E5D" stroke="#B79E5D" stroke-linecap="round" stroke-linejoin="round"/>
<path d="M611.012 57.375V61.375" stroke="#B79E5D" stroke-linecap="round" stroke-linejoin="round"/>
<path d="M609.012 59.375H613.012" stroke="#B79E5D" stroke-linecap="round" stroke-linejoin="round"/>
<path d="M613.25 74.625V78.625" stroke="#B79E5D" stroke-linecap="round" stroke-linejoin="round"/>
<path d="M611.25 76.625H615.25" stroke="#B79E5D" stroke-linecap="round" stroke-linejoin="round"/>
</g>
<g clip-path="url(#clip3_149_824)">
<path d="M24.752 6.375C24.727 12.656 27.781 16.219 34.752 16.375C28.287 16.35 25.08 19.816 24.752 26.375C24.689 20.188 21.924 16.366 14.752 16.375C21.168 16.285 24.727 13.188 24.752 6.375Z" fill="#B79E5D" stroke="#B79E5D" stroke-linecap="round" stroke-linejoin="round"/>
<path d="M33.0117 6.375V10.375" stroke="#B79E5D" stroke-linecap="round" stroke-linejoin="round"/>
<path d="M31.0117 8.375H35.0117" stroke="#B79E5D" stroke-linecap="round" stroke-linejoin="round"/>
<path d="M35.25 23.625V27.625" stroke="#B79E5D" stroke-linecap="round" stroke-linejoin="round"/>
<path d="M33.25 25.625H37.25" stroke="#B79E5D" stroke-linecap="round" stroke-linejoin="round"/>
</g>
<g clip-path="url(#clip4_149_824)">
<path d="M1629.75 53.375C1629.73 59.656 1632.78 63.219 1639.75 63.375C1633.29 63.35 1630.08 66.816 1629.75 73.375C1629.69 67.188 1626.92 63.366 1619.75 63.375C1626.17 63.285 1629.73 60.188 1629.75 53.375Z" fill="#B79E5D" stroke="#B79E5D" stroke-linecap="round" stroke-linejoin="round"/>
<path d="M1638.01 53.375V57.375" stroke="#B79E5D" stroke-linecap="round" stroke-linejoin="round"/>
<path d="M1636.01 55.375H1640.01" stroke="#B79E5D" stroke-linecap="round" stroke-linejoin="round"/>
<path d="M1640.25 70.625V74.625" stroke="#B79E5D" stroke-linecap="round" stroke-linejoin="round"/>
<path d="M1638.25 72.625H1642.25" stroke="#B79E5D" stroke-linecap="round" stroke-linejoin="round"/>
</g>
<g clip-path="url(#clip5_149_824)">
<path d="M482.752 6.375C482.727 12.656 485.781 16.219 492.752 16.375C486.287 16.35 483.08 19.816 482.752 26.375C482.689 20.188 479.924 16.366 472.752 16.375C479.168 16.285 482.727 13.188 482.752 6.375Z" fill="#B79E5D" stroke="#B79E5D" stroke-linecap="round" stroke-linejoin="round"/>
<path d="M491.012 6.375V10.375" stroke="#B79E5D" stroke-linecap="round" stroke-linejoin="round"/>
<path d="M489.012 8.375H493.012" stroke="#B79E5D" stroke-linecap="round" stroke-linejoin="round"/>
<path d="M493.25 23.625V27.625" stroke="#B79E5D" stroke-linecap="round" stroke-linejoin="round"/>
<path d="M491.25 25.625H495.25" stroke="#B79E5D" stroke-linecap="round" stroke-linejoin="round"/>
</g>
<g clip-path="url(#clip6_149_824)">
<path d="M91.752 70.375C91.727 76.656 94.781 80.219 101.752 80.375C95.287 80.35 92.08 83.816 91.752 90.375C91.689 84.188 88.924 80.366 81.752 80.375C88.168 80.285 91.727 77.188 91.752 70.375Z" fill="#B79E5D" stroke="#B79E5D" stroke-linecap="round" stroke-linejoin="round"/>
<path d="M100.012 70.375V74.375" stroke="#B79E5D" stroke-linecap="round" stroke-linejoin="round"/>
<path d="M98.0117 72.375H102.012" stroke="#B79E5D" stroke-linecap="round" stroke-linejoin="round"/>
<path d="M102.25 87.625V91.625" stroke="#B79E5D" stroke-linecap="round" stroke-linejoin="round"/>
<path d="M100.25 89.625H104.25" stroke="#B79E5D" stroke-linecap="round" stroke-linejoin="round"/>
</g>
<g clip-path="url(#clip7_149_824)">
<path d="M936.752 106.375C936.727 112.656 939.781 116.219 946.752 116.375C940.287 116.35 937.08 119.816 936.752 126.375C936.689 120.188 933.924 116.366 926.752 116.375C933.168 116.285 936.727 113.188 936.752 106.375Z" fill="#B79E5D" stroke="#B79E5D" stroke-linecap="round" stroke-linejoin="round"/>
<path d="M945.012 106.375V110.375" stroke="#B79E5D" stroke-linecap="round" stroke-linejoin="round"/>
<path d="M943.012 108.375H947.012" stroke="#B79E5D" stroke-linecap="round" stroke-linejoin="round"/>
<path d="M947.25 123.625V127.625" stroke="#B79E5D" stroke-linecap="round" stroke-linejoin="round"/>
<path d="M945.25 125.625H949.25" stroke="#B79E5D" stroke-linecap="round" stroke-linejoin="round"/>
</g>
<g clip-path="url(#clip8_149_824)">
<path d="M1579.75 5.375C1579.73 11.656 1582.78 15.219 1589.75 15.375C1583.29 15.35 1580.08 18.816 1579.75 25.375C1579.69 19.188 1576.92 15.366 1569.75 15.375C1576.17 15.285 1579.73 12.188 1579.75 5.375Z" fill="#B79E5D" stroke="#B79E5D" stroke-linecap="round" stroke-linejoin="round"/>
<path d="M1588.01 5.375V9.375" stroke="#B79E5D" stroke-linecap="round" stroke-linejoin="round"/>
<path d="M1586.01 7.375H1590.01" stroke="#B79E5D" stroke-linecap="round" stroke-linejoin="round"/>
<path d="M1590.25 22.625V26.625" stroke="#B79E5D" stroke-linecap="round" stroke-linejoin="round"/>
<path d="M1588.25 24.625H1592.25" stroke="#B79E5D" stroke-linecap="round" stroke-linejoin="round"/>
</g>
</g>
<defs>
<clipPath id="clip0_149_824">
<rect width="1673" height="150" rx="18" fill="white"/>
</clipPath>
<clipPath id="clip1_149_824">
<rect width="24" height="24" fill="white" transform="translate(1224 -20)"/>
</clipPath>
<clipPath id="clip2_149_824">
<rect width="24" height="24" fill="white" transform="translate(592 56)"/>
</clipPath>
<clipPath id="clip3_149_824">
<rect width="24" height="24" fill="white" transform="translate(14 5)"/>
</clipPath>
<clipPath id="clip4_149_824">
<rect width="24" height="24" fill="white" transform="translate(1619 52)"/>
</clipPath>
<clipPath id="clip5_149_824">
<rect width="24" height="24" fill="white" transform="translate(472 5)"/>
</clipPath>
<clipPath id="clip6_149_824">
<rect width="24" height="24" fill="white" transform="translate(81 69)"/>
</clipPath>
<clipPath id="clip7_149_824">
<rect width="24" height="24" fill="white" transform="translate(926 105)"/>
</clipPath>
<clipPath id="clip8_149_824">
<rect width="24" height="24" fill="white" transform="translate(1569 4)"/>
</clipPath>
</defs>
</svg>
