<svg width="24" height="24" viewBox="0 0 24 24" fill="none" xmlns="http://www.w3.org/2000/svg">
<path d="M22.5648 5.01474C21.7069 5.2747 20.8252 5.17288 19.9196 4.70928L18.8018 2.47358C21.4144 -2.81671 26.4837 2.42809 22.5648 5.01474Z" fill="#F3F3F3" fill-opacity="0.6"/>
<path d="M18.802 2.47363L19.9198 4.70933L19.8873 19.3649L15.2015 19.3909C14.9285 19.3952 14.7054 19.5013 14.5321 19.7093L11.367 23.5243C11.2955 23.6107 11.2059 23.6804 11.1045 23.7285C11.0032 23.7765 10.8925 23.8017 10.7803 23.8023C10.6682 23.803 10.5572 23.779 10.4553 23.732C10.3534 23.6851 10.2631 23.6164 10.1906 23.5308L6.90857 19.6248C6.83909 19.5433 6.75313 19.4777 6.65662 19.4329C6.56011 19.388 6.45537 19.3648 6.34965 19.3649H0.649913C0.477545 19.3649 0.312237 19.2964 0.190355 19.1745C0.0684729 19.0526 0 18.8873 0 18.715V2.98056C0 2.84612 0.0540935 2.71718 0.150381 2.62211C0.246668 2.52704 0.377261 2.47363 0.513431 2.47363H18.802ZM8.61128 5.855C8.61113 5.77221 8.59468 5.69026 8.56287 5.61383C8.53105 5.5374 8.4845 5.46799 8.42585 5.40955C8.36721 5.35111 8.29763 5.3048 8.22109 5.27325C8.14455 5.24171 8.06255 5.22554 7.97976 5.22569L3.88537 5.23284C3.80259 5.23298 3.72064 5.24943 3.64421 5.28125C3.56778 5.31306 3.49836 5.35962 3.43993 5.41826C3.38149 5.4769 3.33517 5.54648 3.30363 5.62302C3.27208 5.69956 3.25592 5.78157 3.25606 5.86436L3.25613 5.90335C3.25627 5.98614 3.27272 6.06809 3.30454 6.14452C3.33635 6.22095 3.38291 6.29036 3.44155 6.3488C3.5002 6.40724 3.56977 6.45355 3.64631 6.4851C3.72286 6.51665 3.80486 6.53281 3.88765 6.53266L7.98203 6.52551C8.06482 6.52537 8.14677 6.50892 8.2232 6.4771C8.29963 6.44529 8.36904 6.39873 8.42748 6.34009C8.48592 6.28145 8.53223 6.21187 8.56378 6.13533C8.59533 6.05879 8.61149 5.97678 8.61134 5.89399L8.61128 5.855ZM18.841 9.08974C18.841 9.00952 18.8252 8.93008 18.7945 8.85596C18.7638 8.78184 18.7188 8.71449 18.662 8.65776C18.6053 8.60103 18.538 8.55603 18.4638 8.52533C18.3897 8.49463 18.3103 8.47883 18.2301 8.47883H3.85398C3.77376 8.47883 3.69431 8.49463 3.62019 8.52533C3.54607 8.55603 3.47873 8.60103 3.422 8.65776C3.36527 8.71449 3.32027 8.78184 3.28957 8.85596C3.25887 8.93008 3.24306 9.00952 3.24306 9.08974V9.16773C3.24306 9.32976 3.30743 9.48515 3.422 9.59972C3.53657 9.71429 3.69196 9.77865 3.85398 9.77865H18.2301C18.3921 9.77865 18.5475 9.71429 18.662 9.59972C18.7766 9.48515 18.841 9.32976 18.841 9.16773V9.08974ZM18.8345 12.3133C18.8345 12.1582 18.7728 12.0094 18.6632 11.8997C18.5535 11.79 18.4047 11.7284 18.2496 11.7284H3.82149C3.66636 11.7284 3.51758 11.79 3.40788 11.8997C3.29819 12.0094 3.23657 12.1582 3.23657 12.3133V12.4433C3.23657 12.5984 3.29819 12.7472 3.40788 12.8569C3.51758 12.9666 3.66636 13.0282 3.82149 13.0282H18.2496C18.4047 13.0282 18.5535 12.9666 18.6632 12.8569C18.7728 12.7472 18.8345 12.5984 18.8345 12.4433V12.3133ZM18.8345 15.5629C18.8345 15.4077 18.7728 15.259 18.6632 15.1493C18.5535 15.0396 18.4047 14.978 18.2496 14.978H3.82149C3.66636 14.978 3.51758 15.0396 3.40788 15.1493C3.29819 15.259 3.23657 15.4077 3.23657 15.5629V15.6929C3.23657 15.848 3.29819 15.9968 3.40788 16.1065C3.51758 16.2162 3.66636 16.2778 3.82149 16.2778H18.2496C18.4047 16.2778 18.5535 16.2162 18.6632 16.1065C18.7728 15.9968 18.8345 15.848 18.8345 15.6929V15.5629Z" fill="#F0F6FC" fill-opacity="0.6"/>
<path d="M19.9192 4.70898C20.8248 5.17259 21.7065 5.27441 22.5644 5.01444L22.5514 18.3052C22.547 18.9897 22.2047 19.3364 21.5245 19.345L19.8867 19.3645L19.9192 4.70898Z" fill="#D9DDE1" fill-opacity="0.6"/>
</svg>
