<svg xmlns="http://www.w3.org/2000/svg" width="120" height="155" viewBox="0 0 120 155">
<rect width="120" height="155" fill="#ffffff"/>
<rect x="11" y="13" width="62" height="6" rx="1" fill="#1d2230" opacity=".85"/>
<g fill="#242a38" opacity=".26">
<rect x="11" y="26" width="98" height="3" rx="1"/><rect x="11" y="33" width="92" height="3" rx="1"/>
<rect x="11" y="40" width="96" height="3" rx="1"/><rect x="11" y="47" width="60" height="3" rx="1"/>
</g>
<rect x="11" y="57" width="98" height="30" rx="2" fill="#242a38" opacity=".1"/>
<g fill="#242a38" opacity=".26">
<rect x="11" y="94" width="95" height="3" rx="1"/><rect x="11" y="101" width="88" height="3" rx="1"/>
<rect x="11" y="108" width="93" height="3" rx="1"/><rect x="11" y="115" width="70" height="3" rx="1"/>
<rect x="11" y="122" width="90" height="3" rx="1"/><rect x="11" y="129" width="55" height="3" rx="1"/>
</g>
<rect x=".5" y=".5" width="119" height="154" fill="none" stroke="#d6dae4"/>
<g transform="rotate(-22 60 77.5)" opacity=".62"><rect x="31.76" y="63.00" width="2.38" height="14.00" rx="1.19" fill="#3858E9"/><circle cx="37.15" cy="72.80" r="4.20" fill="#3858E9"/><circle cx="38.62" cy="65.28" r="2.17" fill="#FF6B2C"/><text x="46.74" y="70.00" font-family="Helvetica,Arial,sans-serif" font-size="9.52" font-weight="700" letter-spacing="0.05" fill="#1B1B2F" dominant-baseline="central">bPlugins</text><text x="60" y="90" font-family="Helvetica,Arial,sans-serif" font-size="7" font-weight="600" letter-spacing=".4" fill="#808080" text-anchor="middle" dominant-baseline="central">NOT FOR DISTRIBUTION</text></g>
</svg>
